<svg width="27" height="27" xmlns="http://www.w3.org/2000/svg" xmlns:xlink="http://www.w3.org/1999/xlink"><defs><path id="a" d="M0 0h26.797v26.797H0z"/></defs><g fill="none" fill-rule="evenodd"><mask id="b" fill="#fff"><use xlink:href="#a"/></mask><path d="M24.115 6.032c0 .399-.268.667-.667.667h-2.683c-.399 0-.667-.268-.667-.667V3.35c0-.399.268-.667.667-.667h2.683c.399 0 .667.268.667.667v2.682zM3.35 24.115c-.399 0-.667-.269-.667-.667v-11.39h2.814c-.137.404-.137.942-.137 1.34 0 4.424 3.618 8.041 8.04 8.041 4.422 0 8.04-3.617 8.04-8.04 0-.4 0-.937-.137-1.342h2.813v11.39c0 .4-.268.668-.667.668H3.35zM13.4 8.04a5.369 5.369 0 0 1 5.358 5.358 5.37 5.37 0 0 1-5.359 5.359 5.37 5.37 0 0 1-5.358-5.359 5.37 5.37 0 0 1 5.358-5.358zM24.114 0H2.682A2.686 2.686 0 0 0 0 2.683v21.432a2.687 2.687 0 0 0 2.682 2.682h21.433a2.686 2.686 0 0 0 2.683-2.682V2.683A2.686 2.686 0 0 0 24.115 0z" fill="#FFF" mask="url(#b)"/></g></svg>