<?xml version="1.0" encoding="UTF-8"?>
<svg width="20px" height="15px" viewBox="0 0 20 15" version="1.1" xmlns="http://www.w3.org/2000/svg" xmlns:xlink="http://www.w3.org/1999/xlink">
    <!-- Generator: Sketch 52.2 (67145) - http://www.bohemiancoding.com/sketch -->
    <title>icon</title>
    <desc>Created with Sketch.</desc>
    <g id="Symbols" stroke="none" stroke-width="1" fill="none" fill-rule="evenodd">
        <g id="ICON-1" transform="translate(2.000000, -2.000000)" fill="#9089F2">
            <path d="M17.2924239,4.50150504 L17.2924239,14.1646381 C17.2924239,14.2449941 17.285369,14.3227326 17.2751787,14.3999477 L11.9197575,9.33333333 L17.2754399,4.26698076 C17.285369,4.34367229 17.2924239,4.42219605 17.2924239,4.50150504 Z M15.5025802,15.9578589 L0.497419751,15.9578589 C-0.136994892,15.9578589 -0.693544805,15.6249182 -1.011536,15.1255071 L4.59550841,9.82044235 L6.19905151,11.3372595 C6.6952432,11.8070933 7.34768692,12.0424028 8.00013065,12.0424028 C8.65231308,12.0424028 9.30501809,11.8070933 9.80120978,11.3372595 L11.4044916,9.82044235 L17.0112747,15.1252454 C16.6935448,15.6249182 16.1367336,15.9578589 15.5025802,15.9578589 Z M-1.27543995,14.3999477 C-1.28536901,14.3227326 -1.29242387,14.2447324 -1.29242387,14.1646381 L-1.29242387,4.50150504 C-1.29242387,4.4219343 -1.2856303,4.34341055 -1.27543995,4.26645727 L4.08024248,9.33333333 L-1.27543995,14.3999477 Z M0.497419751,2.708546 L15.502319,2.708546 C16.1367336,2.708546 16.6932835,3.04174846 17.0112747,3.54142128 L9.31573103,10.821882 C8.58986452,11.5084413 7.40987419,11.5084413 6.68453026,10.821882 L-1.011536,3.54142128 C-0.693283514,3.04174846 -0.136733601,2.708546 0.497419751,2.708546 Z M15.5025802,2 L0.497419751,2 C-0.879584025,2 -2,3.12236618 -2,4.50150504 L-2,14.1646381 C-2,15.5440387 -0.879584025,16.6666667 0.497419751,16.6666667 L15.502319,16.6666667 C16.8793227,16.6666667 18,15.5440387 18,14.1646381 L18,4.50150504 C18,3.12236618 16.8793227,2 15.5025802,2 Z" id="icon"></path>
        </g>
    </g>
</svg>