<svg xmlns="http://www.w3.org/2000/svg" xmlns:xlink="http://www.w3.org/1999/xlink">
    <defs>
        <style>
            svg {
                display: none
            }

            svg:target {
                display: block
            }

        </style>
    </defs>

    <svg id="facebook" viewBox="0 0 13 28">
        <path fill="#fff" d="M12.147 13.608h-3.81V27.2h-5.65V13.61H0V8.806h2.687V5.701C2.687 3.479 3.742 0 8.387 0l4.184.018v4.66H9.535c-.498 0-1.199.249-1.199 1.309v2.825h4.305l-.494 4.796z"
            id="Fill-1" /></svg>

    <svg id="instagram" viewBox="0 0 27 27">
        <path d="M24.115 6.032c0 .399-.268.667-.667.667h-2.683c-.399 0-.667-.268-.667-.667V3.35c0-.399.268-.667.667-.667h2.683c.399 0 .667.268.667.667v2.682zM3.35 24.115c-.399 0-.667-.269-.667-.667v-11.39h2.814c-.137.404-.137.942-.137 1.34 0 4.424 3.618 8.041 8.04 8.041 4.422 0 8.04-3.617 8.04-8.04 0-.4 0-.937-.137-1.342h2.813v11.39c0 .4-.268.668-.667.668H3.35zM13.4 8.04a5.369 5.369 0 0 1 5.358 5.358 5.37 5.37 0 0 1-5.359 5.359 5.37 5.37 0 0 1-5.358-5.359 5.37 5.37 0 0 1 5.358-5.358zM24.114 0H2.682A2.686 2.686 0 0 0 0 2.683v21.432a2.687 2.687 0 0 0 2.682 2.682h21.433a2.686 2.686 0 0 0 2.683-2.682V2.683A2.686 2.686 0 0 0 24.115 0z"
            id="Fill-1" fill="#FFF" mask="url(#mask-2)" /></svg>

    <svg id="youtube" viewBox="0 0 37 26">
        <path d="M14.7 19.077V5.239l10.495 6.918-10.496 6.92zM36.747 5.494A5.492 5.492 0 0 0 31.255 0H5.493A5.492 5.492 0 0 0 0 5.494v14.734a5.493 5.493 0 0 0 5.493 5.494h25.762a5.493 5.493 0 0 0 5.493-5.494V5.494z"
            fill="#FFF" mask="url(#mask-2)" /></svg>

    <svg id="arrow-teaser" viewBox="0 0 23 52">
        <g transform="translate(1 1)" fill-rule="nonzero" stroke="#9089F2" stroke-width="1.5" fill="none">
            <path d="M.143 37.857l10.172 11.63 11.173-11.63" />
            <path d="M10.5.5v47" id="Line" stroke-linecap="square" />
        </g>
    </svg>

    <svg id="arrow-teaser-white" viewBox="0 0 23 52">
        <g transform="translate(1 1)" fill-rule="nonzero" stroke="#fff" stroke-width="1.5" fill="none">
            <path d="M.143 37.857l10.172 11.63 11.173-11.63" />
            <path d="M10.5.5v47" id="Line" stroke-linecap="square" />
        </g>
    </svg>

    <svg id="share-icon" viewBox="0 0 16 17">
        <g fill="none" fill-rule="evenodd">
            <path d="M9.59 15.851a2.095 2.095 0 1 1 0-4.19 2.095 2.095 0 0 1 0 4.19M.161 10.613a2.096 2.096 0 1 1 0-4.191 2.096 2.096 0 0 1 0 4.191m9.43-9.43a2.095 2.095 0 1 1 0 4.191 2.095 2.095 0 0 1 0-4.19m0 9.429A3.124 3.124 0 0 0 7.147 11.8L3.114 9.559a2.945 2.945 0 0 0 0-2.083l4.034-2.24a3.227 3.227 0 1 0-.51-.916L2.603 6.56a3.144 3.144 0 1 0 0 3.913l4.035 2.24a3.136 3.136 0 1 0 2.952-2.101"
                transform="translate(3)" id="ICON-1" fill="#9089F2" />
        </g>
    </svg>

    <svg id="download" viewBox="0 0 16 20">
        <path d="M7.61,16.82c0.2,0,0.39-0.08,0.53-0.22L15,9.74c0.29-0.29,0.29-0.77,0-1.06l0,0c-0.3-0.29-0.77-0.29-1.07,0
        l-5.57,5.57V0.75c0,0,0,0,0,0C8.37,0.34,8.03,0,7.61,0S6.86,0.34,6.86,0.75v13.5L1.29,8.68l0,0c-0.29-0.29-0.77-0.29-1.07,0
        c-0.29,0.29-0.29,0.77,0,1.07l6.86,6.86C7.22,16.74,7.41,16.82,7.61,16.82l6.73,2.67H1c-0.49,0-0.88-0.4-0.88-0.88
        c0-0.49,0.4-0.88,0.88-0.88h13.35c0.49,0,0.88,0.4,0.88,0.88c0,0.49-0.4,0.88-0.88,0.88" fill="#9089F2"/>
    </svg>

    <svg id="copy" viewBox="0 0 16 20">
        <rect x="3.9" y="4.5" class="st0" width="9" height="12" fill="none" stroke="#9089F2" stroke-miterlimit="10"/>
        <path class="st1" d="M9.9,2.5h-8V3v10" fill="none" stroke="#9089F2" stroke-linecap="square" stroke-miterlimit="10"/>
    </svg>

    <svg id="mail" viewBox="0 0 20 15">
        <g stroke="none" stroke-width="1" fill="none" fill-rule="evenodd">
            <g id="ICON-1" transform="translate(2.000000, -2.000000)" fill="#9089F2">
                <path d="M17.2924239,4.50150504 L17.2924239,14.1646381 C17.2924239,14.2449941 17.285369,14.3227326 17.2751787,14.3999477 L11.9197575,9.33333333 L17.2754399,4.26698076 C17.285369,4.34367229 17.2924239,4.42219605 17.2924239,4.50150504 Z M15.5025802,15.9578589 L0.497419751,15.9578589 C-0.136994892,15.9578589 -0.693544805,15.6249182 -1.011536,15.1255071 L4.59550841,9.82044235 L6.19905151,11.3372595 C6.6952432,11.8070933 7.34768692,12.0424028 8.00013065,12.0424028 C8.65231308,12.0424028 9.30501809,11.8070933 9.80120978,11.3372595 L11.4044916,9.82044235 L17.0112747,15.1252454 C16.6935448,15.6249182 16.1367336,15.9578589 15.5025802,15.9578589 Z M-1.27543995,14.3999477 C-1.28536901,14.3227326 -1.29242387,14.2447324 -1.29242387,14.1646381 L-1.29242387,4.50150504 C-1.29242387,4.4219343 -1.2856303,4.34341055 -1.27543995,4.26645727 L4.08024248,9.33333333 L-1.27543995,14.3999477 Z M0.497419751,2.708546 L15.502319,2.708546 C16.1367336,2.708546 16.6932835,3.04174846 17.0112747,3.54142128 L9.31573103,10.821882 C8.58986452,11.5084413 7.40987419,11.5084413 6.68453026,10.821882 L-1.011536,3.54142128 C-0.693283514,3.04174846 -0.136733601,2.708546 0.497419751,2.708546 Z M15.5025802,2 L0.497419751,2 C-0.879584025,2 -2,3.12236618 -2,4.50150504 L-2,14.1646381 C-2,15.5440387 -0.879584025,16.6666667 0.497419751,16.6666667 L15.502319,16.6666667 C16.8793227,16.6666667 18,15.5440387 18,14.1646381 L18,4.50150504 C18,3.12236618 16.8793227,2 15.5025802,2 Z" id="icon"></path>
            </g>
        </g>
    </svg>

</svg>


