<svg width="151" height="75" xmlns="http://www.w3.org/2000/svg"><g fill="none" fill-rule="evenodd"><path d="M28.456 8.38c1.167.554 1.63 2.038 1.031 3.298L20.676 30.21c-2.08-.107-4.208.596-6.023 1.946.041-.227.113-.452.216-.671L25.246 9.661c.6-1.26 2.044-1.837 3.21-1.282m5.954.023c1.166.555 1.63 2.039 1.03 3.298l-9.81 20.638a7.704 7.704 0 0 0-4.223-2.056L31.2 9.684c.599-1.26 2.043-1.836 3.21-1.282m3.256 6.338c1.167.555 1.63 2.04 1.032 3.299L28.322 39.862l-.003.006c.167-2.545-.541-4.97-1.986-6.762l8.124-17.084c.599-1.26 2.043-1.837 3.21-1.281" fill="#D34F5A"/><path d="M40.188 22.645c1.094.52 1.49 1.99.884 3.269l-8.745 18.411c-3.902 7.528-10.24 15.245-19.491 10.514-13.23-6.764.959-38.295.29-38.525-.182-.063 4.275 1.74 3.232 5.44-2.118 7.512-8.405 24.96-1.08 28.552 8.44 4.14 13.272-9.346 13.726-9.266l8.092-17.017c.607-1.278 1.998-1.898 3.092-1.378m9.729 23.573c.271.802-.215 1.698-1.083 1.991l-12.746 4.308c-.9-1.027-2.2-1.708-3.664-1.948.125-.083.263-.153.414-.204l15.01-5.073c.867-.293 1.798.124 2.069.926m2.706 2.814c.27.802-.215 1.698-1.083 1.99l-14.193 4.799a5.066 5.066 0 0 0-.96-2.926l14.167-4.79c.867-.292 1.798.124 2.069.927m-1.498 4.425c.27.803-.216 1.698-1.083 1.991l-15.01 5.073-.003.001c1.275-1.082 2.094-2.523 2.277-4.019l11.75-3.972c.867-.293 1.798.124 2.069.926" fill="#D34F5A"/><path d="M48.554 58.252c.254.752-.257 1.61-1.136 1.907L34.76 64.445c-5.325 1.597-11.85 2.134-13.845-4.38-2.853-9.315 18.467-17.024 18.27-17.444-.053-.114 1.132 2.807-1.086 4.004-4.503 2.431-15.586 7.433-13.935 12.521 1.902 5.862 10.456 1.984 10.626 2.234l11.704-3.955c.879-.298 1.806.075 2.06.827" fill="#D34F5A"/><path d="M17.677 58.476c4.403 3.651 7.366 7.34 6.62 8.242-.748.9-4.922-1.33-9.325-4.98-4.402-3.651-7.367-7.342-6.62-8.242.747-.9 4.922 1.33 9.325 4.98" fill="#000"/><path d="M17.677 58.476c4.403 3.651 7.366 7.34 6.62 8.242-.748.9-4.922-1.33-9.325-4.98-4.402-3.651-7.367-7.342-6.62-8.242.747-.9 4.922 1.33 9.325 4.98z" stroke="#000" stroke-width=".066"/><path d="M1.755 49.62c6.327.11 6.688 4.247 7.629 4.737.404.21-2.841-7.06-5.65-6.67" stroke="#000" stroke-width=".305"/><path d="M1.697 49.192a.59.59 0 1 1 .067 1.177.59.59 0 0 1-.067-1.177" fill="#000"/><path d="M1.697 49.192a.59.59 0 1 1 .067 1.177.59.59 0 0 1-.067-1.177z" stroke="#000" stroke-width=".305"/><path d="M3.577 47.18c.325-.019.601.189.616.464.016.274-.234.511-.559.53-.324.018-.6-.19-.616-.463-.016-.275.235-.513.56-.531" fill="#000"/><path d="M3.577 47.18c.325-.019.601.189.616.464.016.274-.234.511-.559.53-.324.018-.6-.19-.616-.463-.016-.275.235-.513.56-.531z" stroke="#000" stroke-width=".305"/><path d="M75.427 37.52V17.306c0-1.05.24-1.837.718-2.363.477-.524 1.096-.788 1.855-.788.782 0 1.415.261 1.9.78.483.519.725 1.31.725 2.371v20.216c0 1.062-.242 1.856-.726 2.38-.484.526-1.117.787-1.899.787-.747 0-1.362-.264-1.847-.795-.484-.531-.726-1.322-.726-2.372m26.84-1.139l-4.113-16.347v17.713c0 .98-.218 1.715-.656 2.205-.438.49-1.018.735-1.742.735-.7 0-1.272-.242-1.715-.727-.444-.483-.666-1.222-.666-2.213V17.446c0-1.121.293-1.876.876-2.267.582-.391 1.37-.587 2.363-.587h1.61c.968 0 1.671.088 2.11.264.437.174.76.489.97.944.21.455.449 1.196.717 2.222l3.729 14.056 3.728-14.056c.268-1.026.507-1.767.718-2.222.21-.455.534-.77.972-.944.437-.176 1.14-.264 2.108-.264h1.61c.992 0 1.78.196 2.364.587.583.391.875 1.146.875 2.267v20.303c0 .98-.22 1.715-.657 2.205-.437.49-1.023.735-1.758.735-.69 0-1.255-.245-1.699-.735-.443-.49-.664-1.225-.664-2.205V20.036l-4.114 16.347c-.269 1.062-.488 1.841-.656 2.337-.169.496-.481.948-.936 1.356-.456.408-1.085.613-1.891.613-.607 0-1.12-.132-1.54-.394a2.836 2.836 0 0 1-.98-1.006 5.74 5.74 0 0 1-.552-1.357c-.134-.495-.27-1.011-.41-1.549m37.061-17.887h-3.5v7.84h3.5c1.225 0 2.249-.127 3.072-.384.822-.256 1.45-.677 1.88-1.26.433-.584.649-1.348.649-2.294 0-1.13-.334-2.053-.998-2.765-.746-.758-2.281-1.137-4.603-1.137m1.26 11.762h-4.76v7.262c0 1.04-.246 1.827-.736 2.364-.49.537-1.108.805-1.855.805-.782 0-1.412-.266-1.89-.797-.479-.53-.718-1.309-.718-2.336V17.778c0-1.144.262-1.96.788-2.45.524-.49 1.36-.735 2.502-.735h6.67c1.97 0 3.488.152 4.55.454 1.05.292 1.957.776 2.721 1.453a6.54 6.54 0 0 1 1.741 2.486c.397.98.596 2.083.596 3.308 0 2.613-.804 4.594-2.415 5.942-1.61 1.347-4.01 2.022-7.194 2.022M78.388 60.032l-.86-3.414v3.699c0 .205-.045.358-.136.46a.464.464 0 0 1-.365.154.464.464 0 0 1-.357-.151c-.093-.102-.14-.257-.14-.463v-4.24c0-.234.061-.392.183-.473.122-.082.286-.123.493-.123h.338c.202 0 .349.019.44.055a.37.37 0 0 1 .202.198c.044.095.094.25.15.464l.778 2.934.78-2.934a2.95 2.95 0 0 1 .15-.464.368.368 0 0 1 .201-.198c.093-.036.239-.055.441-.055h.336c.208 0 .372.041.493.123.122.081.184.239.184.474v4.239c0 .205-.046.358-.138.46a.464.464 0 0 1-.366.154.455.455 0 0 1-.355-.153c-.093-.103-.14-.256-.14-.461v-3.7l-.858 3.415a6.794 6.794 0 0 1-.137.488.678.678 0 0 1-.196.283.572.572 0 0 1-.395.128.59.59 0 0 1-.32-.082.583.583 0 0 1-.205-.21 1.158 1.158 0 0 1-.116-.283c-.028-.105-.057-.212-.085-.324m6.122-1.287h1.601l-.807-2.211-.794 2.211zm2.15 1.488l-.257-.672h-2.178l-.256.686c-.1.269-.185.45-.256.543-.07.094-.186.141-.347.141a.51.51 0 0 1-.362-.15.457.457 0 0 1-.157-.34c0-.073.013-.148.037-.226.023-.079.064-.187.12-.325l1.37-3.48.142-.36c.054-.14.113-.256.175-.35a.719.719 0 0 1 .245-.224.752.752 0 0 1 .374-.086c.151 0 .277.03.38.086.1.057.181.13.244.221.062.09.114.187.157.29.042.104.097.243.162.415l1.4 3.458c.11.263.164.454.164.574a.476.476 0 0 1-.154.342.513.513 0 0 1-.376.155.472.472 0 0 1-.219-.046.441.441 0 0 1-.153-.124 1.144 1.144 0 0 1-.134-.242 15.105 15.105 0 0 1-.122-.286zm4.452-3.936H90.11v1.473h.973c.26 0 .479-.023.658-.068a.775.775 0 0 0 .407-.23c.094-.109.14-.258.14-.448a.69.69 0 0 0-.112-.393.687.687 0 0 0-.315-.254c-.127-.053-.377-.08-.75-.08m-.62 2.252h-.38v1.72c0 .227-.051.394-.15.5a.506.506 0 0 1-.391.162.496.496 0 0 1-.403-.169c-.095-.112-.142-.276-.142-.493v-4.122c0-.234.052-.404.157-.508.105-.104.274-.158.508-.158h1.765c.244 0 .452.01.625.031.173.022.33.064.468.127a1.357 1.357 0 0 1 .74.762c.067.174.1.359.1.553 0 .4-.112.72-.337.958-.226.239-.568.408-1.026.508.193.102.377.253.551.454.177.199.333.411.47.637.139.225.246.429.322.61.078.182.116.307.116.375 0 .07-.023.14-.068.21a.48.48 0 0 1-.185.165.584.584 0 0 1-.27.06.53.53 0 0 1-.307-.086.806.806 0 0 1-.214-.218 6.836 6.836 0 0 1-.243-.387l-.435-.723a4.026 4.026 0 0 0-.418-.607 1.05 1.05 0 0 0-.375-.285 1.29 1.29 0 0 0-.479-.076m4.387 1.721v-4.222c0-.219.05-.384.15-.494a.502.502 0 0 1 .387-.164c.163 0 .296.054.397.163.1.108.151.273.151.495v4.222c0 .221-.05.387-.15.497a.518.518 0 0 1-.398.164.5.5 0 0 1-.385-.166c-.101-.11-.152-.277-.152-.495m3.996-1.525h1.6l-.807-2.211-.793 2.211zm2.149 1.488l-.256-.672h-2.178l-.257.686c-.1.269-.184.45-.255.543-.072.094-.187.141-.348.141a.507.507 0 0 1-.36-.15.457.457 0 0 1-.158-.34c0-.073.012-.148.036-.226a4.17 4.17 0 0 1 .121-.325l1.37-3.48c.039-.1.085-.22.141-.36.054-.14.113-.256.175-.35a.71.71 0 0 1 .245-.224.751.751 0 0 1 .374-.086.78.78 0 0 1 .38.086c.1.057.182.13.243.221.064.09.115.187.158.29.043.104.098.243.163.415l1.4 3.458c.11.263.164.454.164.574a.48.48 0 0 1-.155.342.514.514 0 0 1-.375.155.472.472 0 0 1-.219-.046.441.441 0 0 1-.154-.124 1.066 1.066 0 0 1-.133-.242 10.763 10.763 0 0 1-.122-.286zm6.77-3.893v3.637h.823c.18 0 .322-.005.423-.014.103-.01.21-.035.32-.073a.893.893 0 0 0 .283-.165c.364-.307.544-.836.544-1.587 0-.528-.079-.924-.238-1.187-.16-.263-.356-.43-.59-.503a2.925 2.925 0 0 0-.849-.108h-.716zm-.42-.859h1.414c.368 0 .684.035.947.103.262.068.502.196.717.384.557.478.836 1.203.836 2.178 0 .321-.027.616-.084.88a2.615 2.615 0 0 1-.26.719 2.216 2.216 0 0 1-.45.572c-.143.13-.3.233-.47.31a2.18 2.18 0 0 1-.55.165 4.192 4.192 0 0 1-.664.047h-1.415c-.197 0-.346-.03-.445-.089a.414.414 0 0 1-.196-.253 1.626 1.626 0 0 1-.046-.422v-3.928c0-.234.054-.404.158-.508.104-.105.274-.158.508-.158zm6.28 3.264h1.6l-.807-2.211-.793 2.211zm2.15 1.488l-.258-.672h-2.178l-.255.686c-.1.269-.186.45-.255.543-.072.094-.188.141-.349.141a.507.507 0 0 1-.36-.15.457.457 0 0 1-.158-.34c0-.073.012-.148.036-.226a4.17 4.17 0 0 1 .122-.325l1.37-3.48.14-.36a1.92 1.92 0 0 1 .175-.35.719.719 0 0 1 .245-.224.755.755 0 0 1 .375-.086c.151 0 .277.03.379.086.1.057.182.13.244.221.062.09.114.187.157.29.043.104.097.243.163.415l1.4 3.458c.11.263.165.454.165.574a.477.477 0 0 1-.156.342.513.513 0 0 1-.375.155.474.474 0 0 1-.22-.046.43.43 0 0 1-.152-.124 1.066 1.066 0 0 1-.133-.242 10.763 10.763 0 0 1-.122-.286zm7.493-3.936h-.73v1.637h.73c.256 0 .47-.026.64-.08a.739.739 0 0 0 .394-.263.786.786 0 0 0 .136-.48.809.809 0 0 0-.209-.577c-.155-.158-.476-.237-.961-.237m.263 2.456h-.994v1.516c0 .217-.051.381-.154.493a.5.5 0 0 1-.387.169.503.503 0 0 1-.394-.166c-.1-.11-.15-.274-.15-.488v-4.13c0-.239.054-.41.165-.512.109-.102.283-.154.521-.154h1.393c.412 0 .728.032.95.095a1.37 1.37 0 0 1 .932.823c.084.205.125.435.125.691 0 .545-.169.96-.504 1.24-.337.282-.837.423-1.503.423m6.862-2.435h-2.446v1.316h2.252c.166 0 .289.037.37.112a.378.378 0 0 1 .123.294.39.39 0 0 1-.121.297c-.08.078-.204.116-.372.116h-2.252v1.524h2.53c.169 0 .299.04.385.118.087.08.13.185.13.317 0 .127-.043.23-.13.309-.086.079-.216.119-.386.119h-2.95c-.236 0-.406-.053-.509-.158-.103-.105-.155-.273-.155-.507v-4.028c0-.157.023-.283.069-.382a.434.434 0 0 1 .218-.216.912.912 0 0 1 .378-.067h2.866c.173 0 .3.038.384.114a.39.39 0 0 1 .127.302.39.39 0 0 1-.127.305c-.083.077-.211.115-.384.115m3.293-.277l2.086 3.157v-3.187c0-.207.045-.361.134-.466a.452.452 0 0 1 .36-.155c.157 0 .279.052.369.155.09.105.136.26.136.466v4.214c0 .47-.195.706-.585.706a.803.803 0 0 1-.264-.042.699.699 0 0 1-.219-.133 1.328 1.328 0 0 1-.19-.214 22.676 22.676 0 0 1-.176-.25l-2.035-3.122v3.14c0 .204-.047.359-.142.464a.473.473 0 0 1-.365.157.466.466 0 0 1-.37-.159c-.093-.106-.14-.26-.14-.462v-4.134c0-.175.021-.313.06-.413a.585.585 0 0 1 .23-.269.633.633 0 0 1 .347-.104.586.586 0 0 1 .433.176c.053.053.107.123.16.208.056.085.113.174.171.267m5.783.007v1.535h2.342v-1.535c0-.22.05-.384.149-.493a.498.498 0 0 1 .389-.165.52.52 0 0 1 .397.163c.1.108.152.273.152.495v4.221c0 .222-.052.388-.154.498a.52.52 0 0 1-.395.164.493.493 0 0 1-.391-.166c-.098-.111-.147-.276-.147-.496v-1.802h-2.342v1.802c0 .222-.052.388-.154.498a.518.518 0 0 1-.395.164.496.496 0 0 1-.39-.166c-.098-.111-.147-.276-.147-.496v-4.221c0-.22.048-.384.144-.493a.497.497 0 0 1 .393-.165c.164 0 .297.055.397.163.101.108.152.273.152.495m6.291 2.697h1.6l-.807-2.211-.793 2.211zm2.15 1.488l-.258-.672h-2.178l-.256.686c-.1.269-.185.45-.255.543-.072.094-.187.141-.348.141a.507.507 0 0 1-.36-.15.457.457 0 0 1-.158-.34c0-.073.012-.148.036-.226a4.17 4.17 0 0 1 .121-.325l1.37-3.48c.039-.1.085-.22.141-.36.054-.14.113-.256.175-.35a.73.73 0 0 1 .246-.224.751.751 0 0 1 .373-.086.78.78 0 0 1 .38.086c.1.057.182.13.243.221.064.09.115.187.158.29.043.104.097.243.163.415l1.4 3.458c.11.263.164.454.164.574a.477.477 0 0 1-.155.342.513.513 0 0 1-.376.155.468.468 0 0 1-.218-.046.433.433 0 0 1-.154-.124 1.066 1.066 0 0 1-.133-.242 10.76 10.76 0 0 1-.122-.286zm-71.291-8.602v-7.145c0-.371.083-.65.25-.835a.828.828 0 0 1 .647-.279.86.86 0 0 1 .664.275c.167.184.252.464.252.84v7.144c0 .376-.085.656-.252.842a.857.857 0 0 1-.664.278.83.83 0 0 1-.644-.282c-.169-.187-.253-.467-.253-.838m6.904-7.158l3.486 5.345v-5.394c0-.35.075-.613.223-.79a.75.75 0 0 1 .602-.262c.26 0 .467.088.617.263.15.176.226.439.226.789v7.133c0 .796-.325 1.194-.977 1.194-.162 0-.31-.024-.44-.07a1.135 1.135 0 0 1-.367-.227 2.238 2.238 0 0 1-.318-.361l-.292-.424-3.402-5.284V51.7c0 .347-.079.609-.238.786a.781.781 0 0 1-.611.266.773.773 0 0 1-.617-.269c-.155-.18-.232-.44-.232-.783v-6.997c0-.297.031-.53.098-.7a.99.99 0 0 1 .384-.454c.18-.117.373-.176.58-.176a1 1 0 0 1 .42.08c.115.054.217.127.304.217.088.09.178.208.269.353.091.144.187.295.284.451m14.641 5.4a2.69 2.69 0 0 1-.418 1.479c-.279.437-.688.78-1.224 1.026-.538.248-1.175.372-1.912.372-.884 0-1.613-.169-2.187-.508a2.936 2.936 0 0 1-.993-.973c-.253-.407-.38-.802-.38-1.185a.798.798 0 0 1 .812-.811c.19 0 .353.062.485.185.132.124.246.308.339.551.114.289.237.53.37.724.131.194.318.354.558.48.24.126.556.189.948.189.536 0 .973-.128 1.31-.381.335-.254.503-.57.503-.95 0-.3-.09-.545-.272-.733a1.76 1.76 0 0 0-.702-.43 12.199 12.199 0 0 0-1.152-.316c-.643-.152-1.182-.33-1.615-.535a2.622 2.622 0 0 1-1.032-.835c-.254-.353-.381-.79-.381-1.314 0-.5.133-.943.402-1.33.27-.388.658-.686 1.166-.895.51-.208 1.108-.312 1.796-.312.55 0 1.026.069 1.426.208.402.138.735.321 1 .55.264.23.457.469.58.72a1.7 1.7 0 0 1 .183.736.877.877 0 0 1-.23.592.727.727 0 0 1-.57.263c-.208 0-.366-.053-.474-.158-.107-.105-.224-.277-.35-.517-.164-.342-.36-.609-.587-.801-.228-.192-.595-.288-1.1-.288-.468 0-.845.104-1.132.312-.287.209-.43.46-.43.752 0 .182.048.34.146.47.097.133.232.247.402.34.172.096.345.17.52.223.175.054.464.133.867.236.505.12.962.252 1.37.396.41.144.758.32 1.046.525.286.207.51.468.671.783.161.316.241.703.241 1.16m8.052-4.832h-1.978v6.59c0 .378-.084.66-.252.844a.835.835 0 0 1-.647.275.848.848 0 0 1-.656-.279c-.17-.185-.253-.465-.253-.84v-6.59h-1.979c-.31 0-.541-.069-.691-.206a.708.708 0 0 1-.226-.548c0-.235.079-.421.235-.557.157-.136.384-.204.682-.204h5.765c.313 0 .546.07.7.21.152.14.228.324.228.55a.7.7 0 0 1-.232.549c-.154.137-.386.206-.696.206m2.774 6.589v-7.145c0-.371.084-.65.251-.835a.832.832 0 0 1 .648-.279c.273 0 .493.091.662.275.169.184.253.464.253.84v7.144c0 .376-.084.656-.253.842a.854.854 0 0 1-.662.278.828.828 0 0 1-.645-.282c-.169-.187-.254-.467-.254-.838m10.354-6.589h-1.978v6.59c0 .378-.084.66-.251.844a.838.838 0 0 1-.648.275.847.847 0 0 1-.655-.279c-.17-.185-.254-.465-.254-.84v-6.59h-1.979c-.31 0-.54-.069-.691-.206a.71.71 0 0 1-.225-.548c0-.235.078-.421.235-.557.157-.136.383-.204.681-.204h5.765c.314 0 .547.07.7.21a.71.71 0 0 1 .228.55.7.7 0 0 1-.232.549c-.154.137-.386.206-.696.206m2.714 3.805v-4.36c0-.373.083-.651.247-.837a.828.828 0 0 1 .65-.278c.282 0 .505.093.67.278.164.186.247.464.247.836v4.46c0 .508.056.93.168 1.272.112.34.31.604.596.792.284.187.683.281 1.197.281.708 0 1.21-.19 1.502-.572.293-.382.44-.96.44-1.736v-4.497c0-.375.081-.655.244-.84a.834.834 0 0 1 .654-.274c.273 0 .493.092.663.275.168.184.252.464.252.84v4.36c0 .71-.068 1.302-.205 1.776-.136.474-.394.89-.772 1.25a2.974 2.974 0 0 1-1.137.667c-.43.141-.935.211-1.514.211-.688 0-1.28-.075-1.777-.225-.497-.151-.902-.384-1.215-.7-.313-.316-.543-.72-.69-1.212-.147-.493-.22-1.082-.22-1.767m16.004-3.805h-1.98v6.59c0 .378-.083.66-.25.844a.834.834 0 0 1-.647.275.848.848 0 0 1-.657-.279c-.17-.185-.253-.465-.253-.84v-6.59h-1.978c-.31 0-.542-.069-.692-.206a.708.708 0 0 1-.226-.548c0-.235.08-.421.236-.557.156-.136.383-.204.682-.204h5.765c.313 0 .546.07.699.21.152.14.229.324.229.55a.7.7 0 0 1-.232.549c-.155.137-.387.206-.696.206m9.052 2.995c0-.664-.105-1.24-.317-1.727-.211-.486-.514-.854-.907-1.104a2.472 2.472 0 0 0-1.353-.373c-.362 0-.697.069-1.005.206-.307.138-.572.34-.793.603-.223.265-.397.602-.526 1.012-.127.41-.193.871-.193 1.383 0 .516.066.982.193 1.398a2.9 2.9 0 0 0 .543 1.036 2.3 2.3 0 0 0 .806.616c.305.136.637.204 1 .204.464 0 .89-.117 1.28-.352.389-.236.698-.598.927-1.09.23-.49.346-1.094.346-1.812m-2.578-4.665c.928 0 1.725.19 2.391.573.667.38 1.17.923 1.512 1.626.341.704.514 1.53.514 2.479 0 .7-.095 1.338-.282 1.91a4.152 4.152 0 0 1-.843 1.492c-.374.42-.834.742-1.38.965-.546.222-1.17.334-1.876.334-.7 0-1.327-.115-1.88-.344a3.703 3.703 0 0 1-1.386-.968 4.145 4.145 0 0 1-.84-1.503 6.153 6.153 0 0 1-.284-1.9c0-.696.098-1.335.295-1.917a4.12 4.12 0 0 1 .858-1.485 3.7 3.7 0 0 1 1.37-.937c.537-.216 1.147-.325 1.83-.325M65 0h-1v75h1z" fill="#000"/></g></svg>